P3
16 16
255
221 197 168 221 197 168 221 197 168 195 174 148 221 197 168 221 197 168 221 197 168 221 197 168 221 197 168 221 197 168 221 197 168 195 174 148 221 197 168 221 197 168 221 197 168 221 197 168 
195 174 148 195 174 148 195 174 148 152 136 116 221 197 168 195 174 148 195 174 148 195 174 148 195 174 148 195 174 148 195 174 148 152 136 116 221 197 168 195 174 148 195 174 148 195 174 148 
195 174 148 195 174 148 195 174 148 152 136 116 221 197 168 195 174 148 195 174 148 195 174 148 195 174 148 195 174 148 195 174 148 152 136 116 221 197 168 195 174 148 195 174 148 195 174 148 
152 136 116 152 136 116 152 136 116 152 136 116 195 174 148 152 136 116 152 136 116 152 136 116 152 136 116 152 136 116 152 136 116 152 136 116 195 174 148 152 136 116 152 136 116 152 136 116 
221 197 168 221 197 168 221 197 168 221 197 168 221 197 168 221 197 168 221 197 168 195 174 148 221 197 168 221 197 168 221 197 168 221 197 168 221 197 168 221 197 168 221 197 168 195 174 148 
221 197 168 195 174 148 195 174 148 195 174 148 195 174 148 195 174 148 195 174 148 152 136 116 221 197 168 195 174 148 195 174 148 195 174 148 195 174 148 195 174 148 195 174 148 152 136 116 
221 197 168 195 174 148 195 174 148 195 174 148 195 174 148 195 174 148 195 174 148 152 136 116 221 197 168 195 174 148 195 174 148 195 174 148 195 174 148 195 174 148 195 174 148 152 136 116 
195 174 148 152 136 116 152 136 116 152 136 116 152 136 116 152 136 116 152 136 116 152 136 116 195 174 148 152 136 116 152 136 116 152 136 116 152 136 116 152 136 116 152 136 116 152 136 116 
221 197 168 221 197 168 221 197 168 195 174 148 221 197 168 221 197 168 221 197 168 221 197 168 221 197 168 221 197 168 221 197 168 195 174 148 221 197 168 221 197 168 221 197 168 221 197 168 
195 174 148 195 174 148 195 174 148 152 136 116 221 197 168 195 174 148 195 174 148 195 174 148 195 174 148 195 174 148 195 174 148 152 136 116 221 197 168 195 174 148 195 174 148 195 174 148 
195 174 148 195 174 148 195 174 148 152 136 116 221 197 168 195 174 148 195 174 148 195 174 148 195 174 148 195 174 148 195 174 148 152 136 116 221 197 168 195 174 148 195 174 148 195 174 148 
152 136 116 152 136 116 152 136 116 152 136 116 195 174 148 152 136 116 152 136 116 152 136 116 152 136 116 152 136 116 152 136 116 152 136 116 195 174 148 152 136 116 152 136 116 152 136 116 
221 197 168 221 197 168 221 197 168 221 197 168 221 197 168 221 197 168 221 197 168 195 174 148 221 197 168 221 197 168 221 197 168 221 197 168 221 197 168 221 197 168 221 197 168 195 174 148 
221 197 168 195 174 148 195 174 148 195 174 148 195 174 148 195 174 148 195 174 148 152 136 116 221 197 168 195 174 148 195 174 148 195 174 148 195 174 148 195 174 148 195 174 148 152 136 116 
221 197 168 195 174 148 195 174 148 195 174 148 195 174 148 195 174 148 195 174 148 152 136 116 221 197 168 195 174 148 195 174 148 195 174 148 195 174 148 195 174 148 195 174 148 152 136 116 
195 174 148 152 136 116 152 136 116 152 136 116 152 136 116 152 136 116 152 136 116 152 136 116 195 174 148 152 136 116 152 136 116 152 136 116 152 136 116 152 136 116 152 136 116 152 136 116 
