P3
16 16
255
194 107 63 194 107 63 194 107 63 161 89 52 194 107 63 194 107 63 194 107 63 194 107 63 194 107 63 194 107 63 194 107 63 161 89 52 194 107 63 194 107 63 194 107 63 194 107 63 
161 89 52 161 89 52 161 89 52 107 59 35 194 107 63 161 89 52 161 89 52 161 89 52 161 89 52 161 89 52 161 89 52 107 59 35 194 107 63 161 89 52 161 89 52 161 89 52 
161 89 52 161 89 52 161 89 52 107 59 35 194 107 63 161 89 52 161 89 52 161 89 52 161 89 52 161 89 52 161 89 52 107 59 35 194 107 63 161 89 52 161 89 52 161 89 52 
107 59 35 107 59 35 107 59 35 107 59 35 161 89 52 107 59 35 107 59 35 107 59 35 107 59 35 107 59 35 107 59 35 107 59 35 161 89 52 107 59 35 107 59 35 107 59 35 
194 107 63 194 107 63 194 107 63 194 107 63 194 107 63 194 107 63 194 107 63 161 89 52 194 107 63 194 107 63 194 107 63 194 107 63 194 107 63 194 107 63 194 107 63 161 89 52 
194 107 63 161 89 52 161 89 52 161 89 52 161 89 52 161 89 52 161 89 52 107 59 35 194 107 63 161 89 52 161 89 52 161 89 52 161 89 52 161 89 52 161 89 52 107 59 35 
194 107 63 161 89 52 161 89 52 161 89 52 161 89 52 161 89 52 161 89 52 107 59 35 194 107 63 161 89 52 161 89 52 161 89 52 161 89 52 161 89 52 161 89 52 107 59 35 
161 89 52 107 59 35 107 59 35 107 59 35 107 59 35 107 59 35 107 59 35 107 59 35 161 89 52 107 59 35 107 59 35 107 59 35 107 59 35 107 59 35 107 59 35 107 59 35 
194 107 63 194 107 63 194 107 63 161 89 52 194 107 63 194 107 63 194 107 63 194 107 63 194 107 63 194 107 63 194 107 63 161 89 52 194 107 63 194 107 63 194 107 63 194 107 63 
161 89 52 161 89 52 161 89 52 107 59 35 194 107 63 161 89 52 161 89 52 161 89 52 161 89 52 161 89 52 161 89 52 107 59 35 194 107 63 161 89 52 161 89 52 161 89 52 
161 89 52 161 89 52 161 89 52 107 59 35 194 107 63 161 89 52 161 89 52 161 89 52 161 89 52 161 89 52 161 89 52 107 59 35 194 107 63 161 89 52 161 89 52 161 89 52 
107 59 35 107 59 35 107 59 35 107 59 35 161 89 52 107 59 35 107 59 35 107 59 35 107 59 35 107 59 35 107 59 35 107 59 35 161 89 52 107 59 35 107 59 35 107 59 35 
194 107 63 194 107 63 194 107 63 194 107 63 194 107 63 194 107 63 194 107 63 161 89 52 194 107 63 194 107 63 194 107 63 194 107 63 194 107 63 194 107 63 194 107 63 161 89 52 
194 107 63 161 89 52 161 89 52 161 89 52 161 89 52 161 89 52 161 89 52 107 59 35 194 107 63 161 89 52 161 89 52 161 89 52 161 89 52 161 89 52 161 89 52 107 59 35 
194 107 63 161 89 52 161 89 52 161 89 52 161 89 52 161 89 52 161 89 52 107 59 35 194 107 63 161 89 52 161 89 52 161 89 52 161 89 52 161 89 52 161 89 52 107 59 35 
161 89 52 107 59 35 107 59 35 107 59 35 107 59 35 107 59 35 107 59 35 107 59 35 161 89 52 107 59 35 107 59 35 107 59 35 107 59 35 107 59 35 107 59 35 107 59 35 
