P3
16 16
255
181 143 125 181 143 125 181 143 125 152 109 88 181 143 125 181 143 125 181 143 125 181 143 125 181 143 125 181 143 125 181 143 125 152 109 88 181 143 125 181 143 125 181 143 125 181 143 125 
152 109 88 152 109 88 152 109 88 104 74 60 181 143 125 152 109 88 152 109 88 152 109 88 152 109 88 152 109 88 152 109 88 104 74 60 181 143 125 152 109 88 152 109 88 152 109 88 
152 109 88 152 109 88 152 109 88 104 74 60 181 143 125 152 109 88 152 109 88 152 109 88 152 109 88 152 109 88 152 109 88 104 74 60 181 143 125 152 109 88 152 109 88 152 109 88 
104 74 60 104 74 60 104 74 60 104 74 60 152 109 88 104 74 60 104 74 60 104 74 60 104 74 60 104 74 60 104 74 60 104 74 60 152 109 88 104 74 60 104 74 60 104 74 60 
181 143 125 181 143 125 181 143 125 181 143 125 181 143 125 181 143 125 181 143 125 152 109 88 181 143 125 181 143 125 181 143 125 181 143 125 181 143 125 181 143 125 181 143 125 152 109 88 
181 143 125 152 109 88 152 109 88 152 109 88 152 109 88 152 109 88 152 109 88 104 74 60 181 143 125 152 109 88 152 109 88 152 109 88 152 109 88 152 109 88 152 109 88 104 74 60 
181 143 125 152 109 88 152 109 88 152 109 88 152 109 88 152 109 88 152 109 88 104 74 60 181 143 125 152 109 88 152 109 88 152 109 88 152 109 88 152 109 88 152 109 88 104 74 60 
152 109 88 104 74 60 104 74 60 104 74 60 104 74 60 104 74 60 104 74 60 104 74 60 152 109 88 104 74 60 104 74 60 104 74 60 104 74 60 104 74 60 104 74 60 104 74 60 
181 143 125 181 143 125 181 143 125 152 109 88 181 143 125 181 143 125 181 143 125 181 143 125 181 143 125 181 143 125 181 143 125 152 109 88 181 143 125 181 143 125 181 143 125 181 143 125 
152 109 88 152 109 88 152 109 88 104 74 60 181 143 125 152 109 88 152 109 88 152 109 88 152 109 88 152 109 88 152 109 88 104 74 60 181 143 125 152 109 88 152 109 88 152 109 88 
152 109 88 152 109 88 152 109 88 104 74 60 181 143 125 152 109 88 152 109 88 152 109 88 152 109 88 152 109 88 152 109 88 104 74 60 181 143 125 152 109 88 152 109 88 152 109 88 
104 74 60 104 74 60 104 74 60 104 74 60 152 109 88 104 74 60 104 74 60 104 74 60 104 74 60 104 74 60 104 74 60 104 74 60 152 109 88 104 74 60 104 74 60 104 74 60 
181 143 125 181 143 125 181 143 125 181 143 125 181 143 125 181 143 125 181 143 125 152 109 88 181 143 125 181 143 125 181 143 125 181 143 125 181 143 125 181 143 125 181 143 125 152 109 88 
181 143 125 152 109 88 152 109 88 152 109 88 152 109 88 152 109 88 152 109 88 104 74 60 181 143 125 152 109 88 152 109 88 152 109 88 152 109 88 152 109 88 152 109 88 104 74 60 
181 143 125 152 109 88 152 109 88 152 109 88 152 109 88 152 109 88 152 109 88 104 74 60 181 143 125 152 109 88 152 109 88 152 109 88 152 109 88 152 109 88 152 109 88 104 74 60 
152 109 88 104 74 60 104 74 60 104 74 60 104 74 60 104 74 60 104 74 60 104 74 60 152 109 88 104 74 60 104 74 60 104 74 60 104 74 60 104 74 60 104 74 60 104 74 60 
