P3
8
8
255
255 241 232 255 241 232 255 241 232 255 241 232 255 241 232 255 241 232 255 241 232 255 241 232 
194 195 199 194 195 199 194 195 199 255 241 232 194 195 199 194 195 199 194 195 199 255 241 232 
255 241 232 255 241 232 255 241 232 255 241 232 255 241 232 255 241 232 255 241 232 255 241 232 
194 195 199 255 241 232 194 195 199 194 195 199 194 195 199 255 241 232 194 195 199 194 195 199 
255 241 232 255 241 232 255 241 232 255 241 232 255 241 232 255 241 232 255 241 232 255 241 232 
194 195 199 194 195 199 194 195 199 255 241 232 194 195 199 194 195 199 194 195 199 255 241 232 
255 241 232 255 241 232 255 241 232 255 241 232 255 241 232 255 241 232 255 241 232 255 241 232 
194 195 199 255 241 232 194 195 199 194 195 199 194 195 199 255 241 232 194 195 199 194 195 199 
