P3
16 16
255
158 83 65 158 83 65 158 83 65 124 69 54 158 83 65 158 83 65 158 83 65 158 83 65 158 83 65 158 83 65 158 83 65 124 69 54 158 83 65 158 83 65 158 83 65 158 83 65 
124 69 54 124 69 54 124 69 54 92 50 39 158 83 65 124 69 54 124 69 54 124 69 54 124 69 54 124 69 54 124 69 54 92 50 39 158 83 65 124 69 54 124 69 54 124 69 54 
124 69 54 124 69 54 124 69 54 92 50 39 158 83 65 124 69 54 124 69 54 124 69 54 124 69 54 124 69 54 124 69 54 92 50 39 158 83 65 124 69 54 124 69 54 124 69 54 
92 50 39 92 50 39 92 50 39 92 50 39 124 69 54 92 50 39 92 50 39 92 50 39 92 50 39 92 50 39 92 50 39 92 50 39 124 69 54 92 50 39 92 50 39 92 50 39 
158 83 65 158 83 65 158 83 65 158 83 65 158 83 65 158 83 65 158 83 65 124 69 54 158 83 65 158 83 65 158 83 65 158 83 65 158 83 65 158 83 65 158 83 65 124 69 54 
158 83 65 124 69 54 124 69 54 124 69 54 124 69 54 124 69 54 124 69 54 92 50 39 158 83 65 124 69 54 124 69 54 124 69 54 124 69 54 124 69 54 124 69 54 92 50 39 
158 83 65 124 69 54 124 69 54 124 69 54 124 69 54 124 69 54 124 69 54 92 50 39 158 83 65 124 69 54 124 69 54 124 69 54 124 69 54 124 69 54 124 69 54 92 50 39 
124 69 54 92 50 39 92 50 39 92 50 39 92 50 39 92 50 39 92 50 39 92 50 39 124 69 54 92 50 39 92 50 39 92 50 39 92 50 39 92 50 39 92 50 39 92 50 39 
158 83 65 158 83 65 158 83 65 124 69 54 158 83 65 158 83 65 158 83 65 158 83 65 158 83 65 158 83 65 158 83 65 124 69 54 158 83 65 158 83 65 158 83 65 158 83 65 
124 69 54 124 69 54 124 69 54 92 50 39 158 83 65 124 69 54 124 69 54 124 69 54 124 69 54 124 69 54 124 69 54 92 50 39 158 83 65 124 69 54 124 69 54 124 69 54 
124 69 54 124 69 54 124 69 54 92 50 39 158 83 65 124 69 54 124 69 54 124 69 54 124 69 54 124 69 54 124 69 54 92 50 39 158 83 65 124 69 54 124 69 54 124 69 54 
92 50 39 92 50 39 92 50 39 92 50 39 124 69 54 92 50 39 92 50 39 92 50 39 92 50 39 92 50 39 92 50 39 92 50 39 124 69 54 92 50 39 92 50 39 92 50 39 
158 83 65 158 83 65 158 83 65 158 83 65 158 83 65 158 83 65 158 83 65 124 69 54 158 83 65 158 83 65 158 83 65 158 83 65 158 83 65 158 83 65 158 83 65 124 69 54 
158 83 65 124 69 54 124 69 54 124 69 54 124 69 54 124 69 54 124 69 54 92 50 39 158 83 65 124 69 54 124 69 54 124 69 54 124 69 54 124 69 54 124 69 54 92 50 39 
158 83 65 124 69 54 124 69 54 124 69 54 124 69 54 124 69 54 124 69 54 92 50 39 158 83 65 124 69 54 124 69 54 124 69 54 124 69 54 124 69 54 124 69 54 92 50 39 
124 69 54 92 50 39 92 50 39 92 50 39 92 50 39 92 50 39 92 50 39 92 50 39 124 69 54 92 50 39 92 50 39 92 50 39 92 50 39 92 50 39 92 50 39 92 50 39 
